<svg xmlns="http://www.w3.org/2000/svg" width="19" height="19" viewBox="0 0 19 19" fill="none">
  <circle cx="9.5" cy="9.49992" r="2.57292" stroke="currentColor" stroke-width="1.58333"/>
  <path d="M15.3583 10.6874C15.5161 9.90362 15.5161 9.09622 15.3583 8.31242L16.9417 7.08534L15.3583 4.34617L13.4979 5.09825C12.8976 4.56952 12.1978 4.16581 11.4396 3.91075L11.1229 1.58325H7.87707L7.5604 3.91075C6.80217 4.16581 6.10241 4.56952 5.50207 5.09825L3.64165 4.34617L2.05832 7.08534L3.64165 8.31242C3.48385 9.09622 3.48385 9.90362 3.64165 10.6874L2.05832 11.9145L3.64165 14.6537L5.50207 13.9016C6.10241 14.4303 6.80217 14.834 7.5604 15.0891L7.87707 17.4166H11.1229L11.4396 15.0891C12.1978 14.834 12.8976 14.4303 13.4979 13.9016L15.3583 14.6537L16.9417 11.9145L15.3583 10.6874Z" stroke="currentColor" stroke-width="1.58333" stroke-linejoin="round"/>
</svg>
